solid IR_GP2D12_Mount
facet normal 0.0 0.0 -1.0
  outer loop
    vertex 45.0 12.999999999999998 0.0
    vertex 0.0 -1.9999999999999998 0.0
    vertex 0.0 12.999999999999998 0.0
  endloop
endfacet
facet normal 0.0 0.0 -1.0
  outer loop
    vertex 0.0 -1.9999999999999998 0.0
    vertex 45.0 12.999999999999998 0.0
    vertex 45.0 -1.9999999999999998 0.0
  endloop
endfacet
facet normal -0.0 -0.0 1.0
  outer loop
    vertex 0.0 0.0 1.9999999999999998
    vertex 2.5511112605663975 6.1117714323462184 1.9999999999999998
    vertex 0.0 12.999999999999998 1.9999999999999998
  endloop
endfacet
facet normal -0.0 -0.0 1.0
  outer loop
    vertex 2.5511112605663975 6.1117714323462184 1.9999999999999998
    vertex 0.0 0.0 1.9999999999999998
    vertex 2.7009618943233424 5.75 1.9999999999999998
  endloop
endfacet
facet normal -0.0 -0.0 1.0
  outer loop
    vertex 2.7009618943233424 5.75 1.9999999999999998
    vertex 0.0 0.0 1.9999999999999998
    vertex 2.9393398282201786 5.439339828220179 1.9999999999999998
  endloop
endfacet
facet normal -0.0 -0.0 1.0
  outer loop
    vertex 2.9393398282201786 5.439339828220179 1.9999999999999998
    vertex 0.0 0.0 1.9999999999999998
    vertex 3.250000000000001 5.200961894323342 1.9999999999999998
  endloop
endfacet
facet normal -0.0 -0.0 1.0
  outer loop
    vertex 3.250000000000001 5.200961894323342 1.9999999999999998
    vertex 0.0 0.0 1.9999999999999998
    vertex 3.611771432346219 5.051111260566398 1.9999999999999998
  endloop
endfacet
facet normal -0.0 -0.0 1.0
  outer loop
    vertex 3.611771432346219 5.051111260566398 1.9999999999999998
    vertex 0.0 0.0 1.9999999999999998
    vertex 3.9999999999999996 5.000000000000001 1.9999999999999998
  endloop
endfacet
facet normal -0.0 -0.0 1.0
  outer loop
    vertex 3.9999999999999996 5.000000000000001 1.9999999999999998
    vertex 0.0 0.0 1.9999999999999998
    vertex 45.0 0.0 1.9999999999999998
  endloop
endfacet
facet normal -0.0 -0.0 1.0
  outer loop
    vertex 0.0 12.999999999999998 1.9999999999999998
    vertex 2.5511112605663975 6.1117714323462184 1.9999999999999998
    vertex 2.4999999999999996 6.500000000000001 1.9999999999999998
  endloop
endfacet
facet normal -0.0 -0.0 1.0
  outer loop
    vertex 3.9999999999999996 5.000000000000001 1.9999999999999998
    vertex 45.0 0.0 1.9999999999999998
    vertex 4.3882285676537816 5.051111260566398 1.9999999999999998
  endloop
endfacet
facet normal -0.0 -0.0 1.0
  outer loop
    vertex 4.3882285676537816 5.051111260566398 1.9999999999999998
    vertex 45.0 0.0 1.9999999999999998
    vertex 4.750000000000001 5.200961894323344 1.9999999999999998
  endloop
endfacet
facet normal -0.0 -0.0 1.0
  outer loop
    vertex 4.750000000000001 5.200961894323344 1.9999999999999998
    vertex 45.0 0.0 1.9999999999999998
    vertex 5.060660171779822 5.43933982822018 1.9999999999999998
  endloop
endfacet
facet normal -0.0 -0.0 1.0
  outer loop
    vertex 5.060660171779822 5.43933982822018 1.9999999999999998
    vertex 45.0 0.0 1.9999999999999998
    vertex 5.299038105676658 5.750000000000001 1.9999999999999998
  endloop
endfacet
facet normal -0.0 -0.0 1.0
  outer loop
    vertex 5.299038105676658 5.750000000000001 1.9999999999999998
    vertex 45.0 0.0 1.9999999999999998
    vertex 5.4488887394336025 6.11177143234622 1.9999999999999998
  endloop
endfacet
facet normal -0.0 -0.0 1.0
  outer loop
    vertex 5.4488887394336025 6.11177143234622 1.9999999999999998
    vertex 45.0 0.0 1.9999999999999998
    vertex 5.5 6.500000000000001 1.9999999999999998
  endloop
endfacet
facet normal -0.0 -0.0 1.0
  outer loop
    vertex 5.5 6.500000000000001 1.9999999999999998
    vertex 45.0 0.0 1.9999999999999998
    vertex 39.93933982822018 5.439339828220181 1.9999999999999998
  endloop
endfacet
facet normal -0.0 -0.0 1.0
  outer loop
    vertex 5.5 6.500000000000001 1.9999999999999998
    vertex 39.93933982822018 5.439339828220181 1.9999999999999998
    vertex 39.70096189432334 5.750000000000002 1.9999999999999998
  endloop
endfacet
facet normal -0.0 -0.0 1.0
  outer loop
    vertex 5.5 6.500000000000001 1.9999999999999998
    vertex 39.70096189432334 5.750000000000002 1.9999999999999998
    vertex 39.5511112605664 6.111771432346219 1.9999999999999998
  endloop
endfacet
facet normal -0.0 -0.0 1.0
  outer loop
    vertex 5.5 6.500000000000001 1.9999999999999998
    vertex 39.5511112605664 6.111771432346219 1.9999999999999998
    vertex 39.5 6.500000000000001 1.9999999999999998
  endloop
endfacet
facet normal -0.0 -0.0 1.0
  outer loop
    vertex 39.93933982822018 5.439339828220181 1.9999999999999998
    vertex 45.0 0.0 1.9999999999999998
    vertex 40.25 5.200961894323345 1.9999999999999998
  endloop
endfacet
facet normal -0.0 -0.0 1.0
  outer loop
    vertex 40.25 5.200961894323345 1.9999999999999998
    vertex 45.0 0.0 1.9999999999999998
    vertex 40.61177143234622 5.051111260566401 1.9999999999999998
  endloop
endfacet
facet normal -0.0 -0.0 1.0
  outer loop
    vertex 40.61177143234622 5.051111260566401 1.9999999999999998
    vertex 45.0 0.0 1.9999999999999998
    vertex 41.0 5.0000000000000036 1.9999999999999998
  endloop
endfacet
facet normal -0.0 -0.0 1.0
  outer loop
    vertex 41.0 5.0000000000000036 1.9999999999999998
    vertex 45.0 0.0 1.9999999999999998
    vertex 41.38822856765378 5.051111260566401 1.9999999999999998
  endloop
endfacet
facet normal -0.0 -0.0 1.0
  outer loop
    vertex 41.38822856765378 5.051111260566401 1.9999999999999998
    vertex 45.0 0.0 1.9999999999999998
    vertex 41.75 5.2009618943233455 1.9999999999999998
  endloop
endfacet
facet normal -0.0 -0.0 1.0
  outer loop
    vertex 41.75 5.2009618943233455 1.9999999999999998
    vertex 45.0 0.0 1.9999999999999998
    vertex 42.060660171779816 5.439339828220182 1.9999999999999998
  endloop
endfacet
facet normal -0.0 -0.0 1.0
  outer loop
    vertex 42.060660171779816 5.439339828220182 1.9999999999999998
    vertex 45.0 0.0 1.9999999999999998
    vertex 42.29903810567665 5.750000000000002 1.9999999999999998
  endloop
endfacet
facet normal -0.0 -0.0 1.0
  outer loop
    vertex 42.29903810567665 5.750000000000002 1.9999999999999998
    vertex 45.0 0.0 1.9999999999999998
    vertex 42.4488887394336 6.111771432346221 1.9999999999999998
  endloop
endfacet
facet normal -0.0 -0.0 1.0
  outer loop
    vertex 42.4488887394336 6.111771432346221 1.9999999999999998
    vertex 45.0 0.0 1.9999999999999998
    vertex 42.49999999999999 6.500000000000001 1.9999999999999998
  endloop
endfacet
facet normal -0.0 -0.0 1.0
  outer loop
    vertex 0.0 12.999999999999998 1.9999999999999998
    vertex 3.9999999999999996 8.0 1.9999999999999998
    vertex 45.0 12.999999999999998 1.9999999999999998
  endloop
endfacet
facet normal -0.0 -0.0 1.0
  outer loop
    vertex 3.9999999999999996 8.0 1.9999999999999998
    vertex 0.0 12.999999999999998 1.9999999999999998
    vertex 3.6117714323462184 7.948888739433603 1.9999999999999998
  endloop
endfacet
facet normal -0.0 -0.0 1.0
  outer loop
    vertex 3.6117714323462184 7.948888739433603 1.9999999999999998
    vertex 0.0 12.999999999999998 1.9999999999999998
    vertex 3.2499999999999996 7.799038105676658 1.9999999999999998
  endloop
endfacet
facet normal -0.0 -0.0 1.0
  outer loop
    vertex 3.2499999999999996 7.799038105676658 1.9999999999999998
    vertex 0.0 12.999999999999998 1.9999999999999998
    vertex 2.9393398282201786 7.560660171779822 1.9999999999999998
  endloop
endfacet
facet normal -0.0 -0.0 1.0
  outer loop
    vertex 2.9393398282201786 7.560660171779822 1.9999999999999998
    vertex 0.0 12.999999999999998 1.9999999999999998
    vertex 2.7009618943233416 7.250000000000001 1.9999999999999998
  endloop
endfacet
facet normal -0.0 -0.0 1.0
  outer loop
    vertex 2.7009618943233416 7.250000000000001 1.9999999999999998
    vertex 0.0 12.999999999999998 1.9999999999999998
    vertex 2.5511112605663975 6.888228567653782 1.9999999999999998
  endloop
endfacet
facet normal -0.0 -0.0 1.0
  outer loop
    vertex 2.5511112605663975 6.888228567653782 1.9999999999999998
    vertex 0.0 12.999999999999998 1.9999999999999998
    vertex 2.4999999999999996 6.500000000000001 1.9999999999999998
  endloop
endfacet
facet normal -0.0 -0.0 1.0
  outer loop
    vertex 45.0 12.999999999999998 1.9999999999999998
    vertex 3.9999999999999996 8.0 1.9999999999999998
    vertex 4.388228567653781 7.948888739433603 1.9999999999999998
  endloop
endfacet
facet normal -0.0 -0.0 1.0
  outer loop
    vertex 45.0 12.999999999999998 1.9999999999999998
    vertex 4.388228567653781 7.948888739433603 1.9999999999999998
    vertex 4.749999999999999 7.79903810567666 1.9999999999999998
  endloop
endfacet
facet normal -0.0 -0.0 1.0
  outer loop
    vertex 45.0 12.999999999999998 1.9999999999999998
    vertex 4.749999999999999 7.79903810567666 1.9999999999999998
    vertex 5.060660171779821 7.560660171779822 1.9999999999999998
  endloop
endfacet
facet normal -0.0 -0.0 1.0
  outer loop
    vertex 45.0 12.999999999999998 1.9999999999999998
    vertex 5.060660171779821 7.560660171779822 1.9999999999999998
    vertex 5.299038105676657 7.250000000000001 1.9999999999999998
  endloop
endfacet
facet normal -0.0 -0.0 1.0
  outer loop
    vertex 45.0 12.999999999999998 1.9999999999999998
    vertex 5.299038105676657 7.250000000000001 1.9999999999999998
    vertex 5.4488887394336025 6.888228567653782 1.9999999999999998
  endloop
endfacet
facet normal -0.0 -0.0 1.0
  outer loop
    vertex 45.0 12.999999999999998 1.9999999999999998
    vertex 5.4488887394336025 6.888228567653782 1.9999999999999998
    vertex 5.5 6.500000000000001 1.9999999999999998
  endloop
endfacet
facet normal -0.0 -0.0 1.0
  outer loop
    vertex 45.0 12.999999999999998 1.9999999999999998
    vertex 5.5 6.500000000000001 1.9999999999999998
    vertex 39.93933982822018 7.56066017177982 1.9999999999999998
  endloop
endfacet
facet normal -0.0 -0.0 1.0
  outer loop
    vertex 39.93933982822018 7.56066017177982 1.9999999999999998
    vertex 5.5 6.500000000000001 1.9999999999999998
    vertex 39.70096189432334 7.249999999999999 1.9999999999999998
  endloop
endfacet
facet normal -0.0 -0.0 1.0
  outer loop
    vertex 39.70096189432334 7.249999999999999 1.9999999999999998
    vertex 5.5 6.500000000000001 1.9999999999999998
    vertex 39.5511112605664 6.888228567653781 1.9999999999999998
  endloop
endfacet
facet normal -0.0 -0.0 1.0
  outer loop
    vertex 39.5511112605664 6.888228567653781 1.9999999999999998
    vertex 5.5 6.500000000000001 1.9999999999999998
    vertex 39.5 6.500000000000001 1.9999999999999998
  endloop
endfacet
facet normal -0.0 -0.0 1.0
  outer loop
    vertex 45.0 12.999999999999998 1.9999999999999998
    vertex 39.93933982822018 7.56066017177982 1.9999999999999998
    vertex 40.25 7.799038105676657 1.9999999999999998
  endloop
endfacet
facet normal -0.0 -0.0 1.0
  outer loop
    vertex 45.0 12.999999999999998 1.9999999999999998
    vertex 40.25 7.799038105676657 1.9999999999999998
    vertex 40.61177143234622 7.948888739433601 1.9999999999999998
  endloop
endfacet
facet normal -0.0 -0.0 1.0
  outer loop
    vertex 45.0 12.999999999999998 1.9999999999999998
    vertex 40.61177143234622 7.948888739433601 1.9999999999999998
    vertex 41.0 7.999999999999998 1.9999999999999998
  endloop
endfacet
facet normal -0.0 -0.0 1.0
  outer loop
    vertex 45.0 12.999999999999998 1.9999999999999998
    vertex 41.0 7.999999999999998 1.9999999999999998
    vertex 41.388228567653776 7.948888739433601 1.9999999999999998
  endloop
endfacet
facet normal -0.0 -0.0 1.0
  outer loop
    vertex 45.0 12.999999999999998 1.9999999999999998
    vertex 41.388228567653776 7.948888739433601 1.9999999999999998
    vertex 41.75 7.799038105676657 1.9999999999999998
  endloop
endfacet
facet normal -0.0 -0.0 1.0
  outer loop
    vertex 45.0 12.999999999999998 1.9999999999999998
    vertex 41.75 7.799038105676657 1.9999999999999998
    vertex 42.060660171779816 7.56066017177982 1.9999999999999998
  endloop
endfacet
facet normal -0.0 -0.0 1.0
  outer loop
    vertex 45.0 12.999999999999998 1.9999999999999998
    vertex 42.060660171779816 7.56066017177982 1.9999999999999998
    vertex 42.29903810567665 7.249999999999999 1.9999999999999998
  endloop
endfacet
facet normal -0.0 -0.0 1.0
  outer loop
    vertex 45.0 12.999999999999998 1.9999999999999998
    vertex 42.29903810567665 7.249999999999999 1.9999999999999998
    vertex 42.44888873943359 6.888228567653782 1.9999999999999998
  endloop
endfacet
facet normal -0.0 -0.0 1.0
  outer loop
    vertex 45.0 12.999999999999998 1.9999999999999998
    vertex 42.44888873943359 6.888228567653782 1.9999999999999998
    vertex 42.49999999999999 6.500000000000001 1.9999999999999998
  endloop
endfacet
facet normal -0.0 -0.0 1.0
  outer loop
    vertex 45.0 12.999999999999998 1.9999999999999998
    vertex 42.49999999999999 6.500000000000001 1.9999999999999998
    vertex 45.0 0.0 1.9999999999999998
  endloop
endfacet
facet normal -1.0 0.0 0.0
  outer loop
    vertex 0.0 0.0 12.0
    vertex 0.0 -1.9999999999999998 0.0
    vertex 0.0 -1.9999999999999998 12.0
  endloop
endfacet
facet normal -1.0 0.0 0.0
  outer loop
    vertex 0.0 -1.9999999999999998 0.0
    vertex 0.0 0.0 12.0
    vertex 0.0 0.0 1.9999999999999998
  endloop
endfacet
facet normal -1.0 0.0 0.0
  outer loop
    vertex 0.0 -1.9999999999999998 0.0
    vertex 0.0 0.0 1.9999999999999998
    vertex 0.0 12.999999999999998 0.0
  endloop
endfacet
facet normal -1.0 0.0 0.0
  outer loop
    vertex 0.0 12.999999999999998 0.0
    vertex 0.0 0.0 1.9999999999999998
    vertex 0.0 12.999999999999998 1.9999999999999998
  endloop
endfacet
facet normal -0.0 1.0 0.0
  outer loop
    vertex 0.0 12.999999999999998 1.9999999999999998
    vertex 45.0 12.999999999999998 0.0
    vertex 0.0 12.999999999999998 0.0
  endloop
endfacet
facet normal -0.0 1.0 0.0
  outer loop
    vertex 45.0 12.999999999999998 0.0
    vertex 0.0 12.999999999999998 1.9999999999999998
    vertex 45.0 12.999999999999998 1.9999999999999998
  endloop
endfacet
facet normal 1.0 0.0 0.0
  outer loop
    vertex 45.0 -1.9999999999999998 0.0
    vertex 45.0 0.0 1.9999999999999998
    vertex 45.0 -1.9999999999999998 12.0
  endloop
endfacet
facet normal 1.0 0.0 0.0
  outer loop
    vertex 45.0 0.0 1.9999999999999998
    vertex 45.0 -1.9999999999999998 0.0
    vertex 45.0 12.999999999999998 0.0
  endloop
endfacet
facet normal 1.0 0.0 0.0
  outer loop
    vertex 45.0 0.0 1.9999999999999998
    vertex 45.0 12.999999999999998 0.0
    vertex 45.0 12.999999999999998 1.9999999999999998
  endloop
endfacet
facet normal 1.0 0.0 0.0
  outer loop
    vertex 45.0 0.0 12.0
    vertex 45.0 -1.9999999999999998 12.0
    vertex 45.0 0.0 1.9999999999999998
  endloop
endfacet
facet normal -0.0 -1.0 -0.0
  outer loop
    vertex 45.0 -1.9999999999999998 12.0
    vertex 0.0 -1.9999999999999998 0.0
    vertex 45.0 -1.9999999999999998 0.0
  endloop
endfacet
facet normal -0.0 -1.0 -0.0
  outer loop
    vertex 0.0 -1.9999999999999998 0.0
    vertex 45.0 -1.9999999999999998 12.0
    vertex 0.0 -1.9999999999999998 12.0
  endloop
endfacet
facet normal 0.0 0.0 1.0
  outer loop
    vertex 45.0 -1.9999999999999998 12.0
    vertex 0.0 0.0 12.0
    vertex 0.0 -1.9999999999999998 12.0
  endloop
endfacet
facet normal 0.0 0.0 1.0
  outer loop
    vertex 0.0 0.0 12.0
    vertex 45.0 -1.9999999999999998 12.0
    vertex 45.0 0.0 12.0
  endloop
endfacet
facet normal 0.0 1.0 0.0
  outer loop
    vertex 0.0 0.0 12.0
    vertex 45.0 0.0 1.9999999999999998
    vertex 0.0 0.0 1.9999999999999998
  endloop
endfacet
facet normal 0.0 1.0 0.0
  outer loop
    vertex 45.0 0.0 1.9999999999999998
    vertex 0.0 0.0 12.0
    vertex 45.0 0.0 12.0
  endloop
endfacet
facet normal 0.0 0.0 1.0
  outer loop
    vertex 39.5511112605664 6.111771432346219 3.9999999999999996
    vertex 39.5511112605664 6.888228567653781 3.9999999999999996
    vertex 39.5 6.500000000000001 3.9999999999999996
  endloop
endfacet
facet normal 0.0 0.0 1.0
  outer loop
    vertex 39.5511112605664 6.888228567653781 3.9999999999999996
    vertex 39.5511112605664 6.111771432346219 3.9999999999999996
    vertex 39.70096189432334 5.750000000000002 3.9999999999999996
  endloop
endfacet
facet normal 0.0 0.0 1.0
  outer loop
    vertex 39.5511112605664 6.888228567653781 3.9999999999999996
    vertex 39.70096189432334 5.750000000000002 3.9999999999999996
    vertex 39.70096189432334 7.249999999999999 3.9999999999999996
  endloop
endfacet
facet normal 0.0 0.0 1.0
  outer loop
    vertex 39.70096189432334 7.249999999999999 3.9999999999999996
    vertex 39.70096189432334 5.750000000000002 3.9999999999999996
    vertex 39.93933982822018 5.439339828220181 3.9999999999999996
  endloop
endfacet
facet normal 0.0 0.0 1.0
  outer loop
    vertex 39.70096189432334 7.249999999999999 3.9999999999999996
    vertex 39.93933982822018 5.439339828220181 3.9999999999999996
    vertex 39.93933982822018 7.56066017177982 3.9999999999999996
  endloop
endfacet
facet normal 0.0 0.0 1.0
  outer loop
    vertex 39.93933982822018 7.56066017177982 3.9999999999999996
    vertex 39.93933982822018 5.439339828220181 3.9999999999999996
    vertex 40.25 5.200961894323345 3.9999999999999996
  endloop
endfacet
facet normal 0.0 0.0 1.0
  outer loop
    vertex 39.93933982822018 7.56066017177982 3.9999999999999996
    vertex 40.25 5.200961894323345 3.9999999999999996
    vertex 40.25 7.799038105676657 3.9999999999999996
  endloop
endfacet
facet normal 0.0 0.0 1.0
  outer loop
    vertex 40.25 7.799038105676657 3.9999999999999996
    vertex 40.25 5.200961894323345 3.9999999999999996
    vertex 40.61177143234622 5.051111260566401 3.9999999999999996
  endloop
endfacet
facet normal 0.0 0.0 1.0
  outer loop
    vertex 40.25 7.799038105676657 3.9999999999999996
    vertex 40.61177143234622 5.051111260566401 3.9999999999999996
    vertex 40.61177143234622 7.948888739433601 3.9999999999999996
  endloop
endfacet
facet normal 0.0 0.0 1.0
  outer loop
    vertex 40.61177143234622 7.948888739433601 3.9999999999999996
    vertex 40.61177143234622 5.051111260566401 3.9999999999999996
    vertex 41.0 5.0000000000000036 3.9999999999999996
  endloop
endfacet
facet normal 0.0 0.0 1.0
  outer loop
    vertex 40.61177143234622 7.948888739433601 3.9999999999999996
    vertex 41.0 5.0000000000000036 3.9999999999999996
    vertex 41.0 7.999999999999998 3.9999999999999996
  endloop
endfacet
facet normal 0.0 0.0 1.0
  outer loop
    vertex 41.0 7.999999999999998 3.9999999999999996
    vertex 41.0 5.0000000000000036 3.9999999999999996
    vertex 41.38822856765378 5.051111260566401 3.9999999999999996
  endloop
endfacet
facet normal 0.0 0.0 1.0
  outer loop
    vertex 41.0 7.999999999999998 3.9999999999999996
    vertex 41.38822856765378 5.051111260566401 3.9999999999999996
    vertex 41.388228567653776 7.948888739433601 3.9999999999999996
  endloop
endfacet
facet normal 0.0 0.0 1.0
  outer loop
    vertex 41.388228567653776 7.948888739433601 3.9999999999999996
    vertex 41.38822856765378 5.051111260566401 3.9999999999999996
    vertex 41.75 7.799038105676657 3.9999999999999996
  endloop
endfacet
facet normal 0.0 0.0 1.0
  outer loop
    vertex 41.75 7.799038105676657 3.9999999999999996
    vertex 41.38822856765378 5.051111260566401 3.9999999999999996
    vertex 41.75 5.2009618943233455 3.9999999999999996
  endloop
endfacet
facet normal 0.0 0.0 1.0
  outer loop
    vertex 41.75 7.799038105676657 3.9999999999999996
    vertex 41.75 5.2009618943233455 3.9999999999999996
    vertex 42.060660171779816 5.439339828220182 3.9999999999999996
  endloop
endfacet
facet normal 0.0 0.0 1.0
  outer loop
    vertex 41.75 7.799038105676657 3.9999999999999996
    vertex 42.060660171779816 5.439339828220182 3.9999999999999996
    vertex 42.060660171779816 7.56066017177982 3.9999999999999996
  endloop
endfacet
facet normal 0.0 0.0 1.0
  outer loop
    vertex 42.060660171779816 7.56066017177982 3.9999999999999996
    vertex 42.060660171779816 5.439339828220182 3.9999999999999996
    vertex 42.29903810567665 5.750000000000002 3.9999999999999996
  endloop
endfacet
facet normal 0.0 0.0 1.0
  outer loop
    vertex 42.060660171779816 7.56066017177982 3.9999999999999996
    vertex 42.29903810567665 5.750000000000002 3.9999999999999996
    vertex 42.29903810567665 7.249999999999999 3.9999999999999996
  endloop
endfacet
facet normal 0.0 0.0 1.0
  outer loop
    vertex 42.29903810567665 7.249999999999999 3.9999999999999996
    vertex 42.29903810567665 5.750000000000002 3.9999999999999996
    vertex 42.4488887394336 6.111771432346221 3.9999999999999996
  endloop
endfacet
facet normal 0.0 0.0 1.0
  outer loop
    vertex 42.29903810567665 7.249999999999999 3.9999999999999996
    vertex 42.4488887394336 6.111771432346221 3.9999999999999996
    vertex 42.44888873943359 6.888228567653782 3.9999999999999996
  endloop
endfacet
facet normal 0.0 0.0 1.0
  outer loop
    vertex 42.44888873943359 6.888228567653782 3.9999999999999996
    vertex 42.4488887394336 6.111771432346221 3.9999999999999996
    vertex 42.49999999999999 6.500000000000001 3.9999999999999996
  endloop
endfacet
facet normal -0.92387953251129 0.3826834323650821 0.0
  outer loop
    vertex 39.70096189432334 7.249999999999999 3.9999999999999996
    vertex 39.5511112605664 6.888228567653781 1.9999999999999998
    vertex 39.5511112605664 6.888228567653781 3.9999999999999996
  endloop
endfacet
facet normal -0.92387953251129 0.3826834323650821 0.0
  outer loop
    vertex 39.5511112605664 6.888228567653781 1.9999999999999998
    vertex 39.70096189432334 7.249999999999999 3.9999999999999996
    vertex 39.70096189432334 7.249999999999999 1.9999999999999998
  endloop
endfacet
facet normal -0.9914448613738095 0.13052619222005923 0.0
  outer loop
    vertex 39.5511112605664 6.888228567653781 3.9999999999999996
    vertex 39.5 6.500000000000001 1.9999999999999998
    vertex 39.5 6.500000000000001 3.9999999999999996
  endloop
endfacet
facet normal -0.9914448613738095 0.13052619222005923 0.0
  outer loop
    vertex 39.5 6.500000000000001 1.9999999999999998
    vertex 39.5511112605664 6.888228567653781 3.9999999999999996
    vertex 39.5511112605664 6.888228567653781 1.9999999999999998
  endloop
endfacet
facet normal -0.9914448613738096 -0.13052619222005876 -0.0
  outer loop
    vertex 39.5 6.500000000000001 3.9999999999999996
    vertex 39.5511112605664 6.111771432346219 1.9999999999999998
    vertex 39.5511112605664 6.111771432346219 3.9999999999999996
  endloop
endfacet
facet normal -0.9914448613738096 -0.13052619222005876 -0.0
  outer loop
    vertex 39.5511112605664 6.111771432346219 1.9999999999999998
    vertex 39.5 6.500000000000001 3.9999999999999996
    vertex 39.5 6.500000000000001 1.9999999999999998
  endloop
endfacet
facet normal -0.9238795325112898 -0.3826834323650828 -0.0
  outer loop
    vertex 39.5511112605664 6.111771432346219 3.9999999999999996
    vertex 39.70096189432334 5.750000000000002 1.9999999999999998
    vertex 39.70096189432334 5.750000000000002 3.9999999999999996
  endloop
endfacet
facet normal -0.9238795325112898 -0.3826834323650828 -0.0
  outer loop
    vertex 39.70096189432334 5.750000000000002 1.9999999999999998
    vertex 39.5511112605664 6.111771432346219 3.9999999999999996
    vertex 39.5511112605664 6.111771432346219 1.9999999999999998
  endloop
endfacet
facet normal -0.7933533402912332 -0.6087614290087233 -0.0
  outer loop
    vertex 39.70096189432334 5.750000000000002 3.9999999999999996
    vertex 39.93933982822018 5.439339828220181 1.9999999999999998
    vertex 39.93933982822018 5.439339828220181 3.9999999999999996
  endloop
endfacet
facet normal -0.7933533402912332 -0.6087614290087233 -0.0
  outer loop
    vertex 39.93933982822018 5.439339828220181 1.9999999999999998
    vertex 39.70096189432334 5.750000000000002 3.9999999999999996
    vertex 39.70096189432334 5.750000000000002 1.9999999999999998
  endloop
endfacet
facet normal -0.608761429008722 -0.7933533402912343 -0.0
  outer loop
    vertex 40.25 5.200961894323345 3.9999999999999996
    vertex 39.93933982822018 5.439339828220181 1.9999999999999998
    vertex 40.25 5.200961894323345 1.9999999999999998
  endloop
endfacet
facet normal -0.608761429008722 -0.7933533402912343 -0.0
  outer loop
    vertex 39.93933982822018 5.439339828220181 1.9999999999999998
    vertex 40.25 5.200961894323345 3.9999999999999996
    vertex 39.93933982822018 5.439339828220181 3.9999999999999996
  endloop
endfacet
facet normal -0.38268343236508695 -0.923879532511288 -0.0
  outer loop
    vertex 40.61177143234622 5.051111260566401 3.9999999999999996
    vertex 40.25 5.200961894323345 1.9999999999999998
    vertex 40.61177143234622 5.051111260566401 1.9999999999999998
  endloop
endfacet
facet normal -0.38268343236508695 -0.923879532511288 -0.0
  outer loop
    vertex 40.25 5.200961894323345 1.9999999999999998
    vertex 40.61177143234622 5.051111260566401 3.9999999999999996
    vertex 40.25 5.200961894323345 3.9999999999999996
  endloop
endfacet
facet normal -0.13052619222005263 -0.9914448613738104 -0.0
  outer loop
    vertex 41.0 5.0000000000000036 3.9999999999999996
    vertex 40.61177143234622 5.051111260566401 1.9999999999999998
    vertex 41.0 5.0000000000000036 1.9999999999999998
  endloop
endfacet
facet normal -0.13052619222005263 -0.9914448613738104 -0.0
  outer loop
    vertex 40.61177143234622 5.051111260566401 1.9999999999999998
    vertex 41.0 5.0000000000000036 3.9999999999999996
    vertex 40.61177143234622 5.051111260566401 3.9999999999999996
  endloop
endfacet
facet normal 0.13052619222005074 -0.9914448613738105 0.0
  outer loop
    vertex 41.38822856765378 5.051111260566401 3.9999999999999996
    vertex 41.0 5.0000000000000036 1.9999999999999998
    vertex 41.38822856765378 5.051111260566401 1.9999999999999998
  endloop
endfacet
facet normal 0.13052619222005074 -0.9914448613738105 0.0
  outer loop
    vertex 41.0 5.0000000000000036 1.9999999999999998
    vertex 41.38822856765378 5.051111260566401 3.9999999999999996
    vertex 41.0 5.0000000000000036 3.9999999999999996
  endloop
endfacet
facet normal 0.38268343236509367 -0.9238795325112853 0.0
  outer loop
    vertex 41.75 5.2009618943233455 3.9999999999999996
    vertex 41.38822856765378 5.051111260566401 1.9999999999999998
    vertex 41.75 5.2009618943233455 1.9999999999999998
  endloop
endfacet
facet normal 0.38268343236509367 -0.9238795325112853 0.0
  outer loop
    vertex 41.38822856765378 5.051111260566401 1.9999999999999998
    vertex 41.75 5.2009618943233455 3.9999999999999996
    vertex 41.38822856765378 5.051111260566401 3.9999999999999996
  endloop
endfacet
facet normal 0.608761429008722 -0.7933533402912343 0.0
  outer loop
    vertex 42.060660171779816 5.439339828220182 3.9999999999999996
    vertex 41.75 5.2009618943233455 1.9999999999999998
    vertex 42.060660171779816 5.439339828220182 1.9999999999999998
  endloop
endfacet
facet normal 0.608761429008722 -0.7933533402912343 0.0
  outer loop
    vertex 41.75 5.2009618943233455 1.9999999999999998
    vertex 42.060660171779816 5.439339828220182 3.9999999999999996
    vertex 41.75 5.2009618943233455 3.9999999999999996
  endloop
endfacet
facet normal 0.7933533402912332 -0.6087614290087233 0.0
  outer loop
    vertex 42.29903810567665 5.750000000000002 1.9999999999999998
    vertex 42.060660171779816 5.439339828220182 3.9999999999999996
    vertex 42.060660171779816 5.439339828220182 1.9999999999999998
  endloop
endfacet
facet normal 0.7933533402912332 -0.6087614290087233 0.0
  outer loop
    vertex 42.060660171779816 5.439339828220182 3.9999999999999996
    vertex 42.29903810567665 5.750000000000002 1.9999999999999998
    vertex 42.29903810567665 5.750000000000002 3.9999999999999996
  endloop
endfacet
facet normal 0.923879532511285 -0.38268343236509444 0.0
  outer loop
    vertex 42.4488887394336 6.111771432346221 1.9999999999999998
    vertex 42.29903810567665 5.750000000000002 3.9999999999999996
    vertex 42.29903810567665 5.750000000000002 1.9999999999999998
  endloop
endfacet
facet normal 0.923879532511285 -0.38268343236509444 0.0
  outer loop
    vertex 42.29903810567665 5.750000000000002 3.9999999999999996
    vertex 42.4488887394336 6.111771432346221 1.9999999999999998
    vertex 42.4488887394336 6.111771432346221 3.9999999999999996
  endloop
endfacet
facet normal 0.9914448613738114 -0.13052619222004508 0.0
  outer loop
    vertex 42.49999999999999 6.500000000000001 1.9999999999999998
    vertex 42.4488887394336 6.111771432346221 3.9999999999999996
    vertex 42.4488887394336 6.111771432346221 1.9999999999999998
  endloop
endfacet
facet normal 0.9914448613738114 -0.13052619222004508 0.0
  outer loop
    vertex 42.4488887394336 6.111771432346221 3.9999999999999996
    vertex 42.49999999999999 6.500000000000001 1.9999999999999998
    vertex 42.49999999999999 6.500000000000001 3.9999999999999996
  endloop
endfacet
facet normal 0.9914448613738096 0.13052619222005876 0.0
  outer loop
    vertex 42.44888873943359 6.888228567653782 1.9999999999999998
    vertex 42.49999999999999 6.500000000000001 3.9999999999999996
    vertex 42.49999999999999 6.500000000000001 1.9999999999999998
  endloop
endfacet
facet normal 0.9914448613738096 0.13052619222005876 0.0
  outer loop
    vertex 42.49999999999999 6.500000000000001 3.9999999999999996
    vertex 42.44888873943359 6.888228567653782 1.9999999999999998
    vertex 42.44888873943359 6.888228567653782 3.9999999999999996
  endloop
endfacet
facet normal 0.9238795325112894 0.38268343236508334 0.0
  outer loop
    vertex 42.29903810567665 7.249999999999999 1.9999999999999998
    vertex 42.44888873943359 6.888228567653782 3.9999999999999996
    vertex 42.44888873943359 6.888228567653782 1.9999999999999998
  endloop
endfacet
facet normal 0.9238795325112894 0.38268343236508334 0.0
  outer loop
    vertex 42.44888873943359 6.888228567653782 3.9999999999999996
    vertex 42.29903810567665 7.249999999999999 1.9999999999999998
    vertex 42.29903810567665 7.249999999999999 3.9999999999999996
  endloop
endfacet
facet normal 0.7933533402912339 0.6087614290087225 0.0
  outer loop
    vertex 42.060660171779816 7.56066017177982 1.9999999999999998
    vertex 42.29903810567665 7.249999999999999 3.9999999999999996
    vertex 42.29903810567665 7.249999999999999 1.9999999999999998
  endloop
endfacet
facet normal 0.7933533402912339 0.6087614290087225 0.0
  outer loop
    vertex 42.29903810567665 7.249999999999999 3.9999999999999996
    vertex 42.060660171779816 7.56066017177982 1.9999999999999998
    vertex 42.060660171779816 7.56066017177982 3.9999999999999996
  endloop
endfacet
facet normal 0.608761429008722 0.7933533402912343 0.0
  outer loop
    vertex 41.75 7.799038105676657 3.9999999999999996
    vertex 42.060660171779816 7.56066017177982 1.9999999999999998
    vertex 41.75 7.799038105676657 1.9999999999999998
  endloop
endfacet
facet normal 0.608761429008722 0.7933533402912343 0.0
  outer loop
    vertex 42.060660171779816 7.56066017177982 1.9999999999999998
    vertex 41.75 7.799038105676657 3.9999999999999996
    vertex 42.060660171779816 7.56066017177982 3.9999999999999996
  endloop
endfacet
facet normal 0.38268343236508695 0.923879532511288 0.0
  outer loop
    vertex 41.388228567653776 7.948888739433601 3.9999999999999996
    vertex 41.75 7.799038105676657 1.9999999999999998
    vertex 41.388228567653776 7.948888739433601 1.9999999999999998
  endloop
endfacet
facet normal 0.38268343236508695 0.923879532511288 0.0
  outer loop
    vertex 41.75 7.799038105676657 1.9999999999999998
    vertex 41.388228567653776 7.948888739433601 3.9999999999999996
    vertex 41.75 7.799038105676657 3.9999999999999996
  endloop
endfacet
facet normal 0.13052619222005263 0.9914448613738104 0.0
  outer loop
    vertex 41.0 7.999999999999998 3.9999999999999996
    vertex 41.388228567653776 7.948888739433601 1.9999999999999998
    vertex 41.0 7.999999999999998 1.9999999999999998
  endloop
endfacet
facet normal 0.13052619222005263 0.9914448613738104 0.0
  outer loop
    vertex 41.388228567653776 7.948888739433601 1.9999999999999998
    vertex 41.0 7.999999999999998 3.9999999999999996
    vertex 41.388228567653776 7.948888739433601 3.9999999999999996
  endloop
endfacet
facet normal -0.13052619222005263 0.9914448613738104 0.0
  outer loop
    vertex 40.61177143234622 7.948888739433601 3.9999999999999996
    vertex 41.0 7.999999999999998 1.9999999999999998
    vertex 40.61177143234622 7.948888739433601 1.9999999999999998
  endloop
endfacet
facet normal -0.13052619222005263 0.9914448613738104 0.0
  outer loop
    vertex 41.0 7.999999999999998 1.9999999999999998
    vertex 40.61177143234622 7.948888739433601 3.9999999999999996
    vertex 41.0 7.999999999999998 3.9999999999999996
  endloop
endfacet
facet normal -0.38268343236508695 0.923879532511288 0.0
  outer loop
    vertex 40.25 7.799038105676657 3.9999999999999996
    vertex 40.61177143234622 7.948888739433601 1.9999999999999998
    vertex 40.25 7.799038105676657 1.9999999999999998
  endloop
endfacet
facet normal -0.38268343236508695 0.923879532511288 0.0
  outer loop
    vertex 40.61177143234622 7.948888739433601 1.9999999999999998
    vertex 40.25 7.799038105676657 3.9999999999999996
    vertex 40.61177143234622 7.948888739433601 3.9999999999999996
  endloop
endfacet
facet normal -0.608761429008722 0.7933533402912343 0.0
  outer loop
    vertex 39.93933982822018 7.56066017177982 3.9999999999999996
    vertex 40.25 7.799038105676657 1.9999999999999998
    vertex 39.93933982822018 7.56066017177982 1.9999999999999998
  endloop
endfacet
facet normal -0.608761429008722 0.7933533402912343 0.0
  outer loop
    vertex 40.25 7.799038105676657 1.9999999999999998
    vertex 39.93933982822018 7.56066017177982 3.9999999999999996
    vertex 40.25 7.799038105676657 3.9999999999999996
  endloop
endfacet
facet normal -0.7933533402912339 0.6087614290087225 0.0
  outer loop
    vertex 39.93933982822018 7.56066017177982 3.9999999999999996
    vertex 39.70096189432334 7.249999999999999 1.9999999999999998
    vertex 39.70096189432334 7.249999999999999 3.9999999999999996
  endloop
endfacet
facet normal -0.7933533402912339 0.6087614290087225 0.0
  outer loop
    vertex 39.70096189432334 7.249999999999999 1.9999999999999998
    vertex 39.93933982822018 7.56066017177982 3.9999999999999996
    vertex 39.93933982822018 7.56066017177982 1.9999999999999998
  endloop
endfacet
facet normal 0.0 0.0 1.0
  outer loop
    vertex 2.5511112605663975 6.1117714323462184 3.9999999999999996
    vertex 2.5511112605663975 6.888228567653782 3.9999999999999996
    vertex 2.4999999999999996 6.500000000000001 3.9999999999999996
  endloop
endfacet
facet normal 0.0 0.0 1.0
  outer loop
    vertex 2.5511112605663975 6.888228567653782 3.9999999999999996
    vertex 2.5511112605663975 6.1117714323462184 3.9999999999999996
    vertex 2.7009618943233416 7.250000000000001 3.9999999999999996
  endloop
endfacet
facet normal 0.0 0.0 1.0
  outer loop
    vertex 2.7009618943233416 7.250000000000001 3.9999999999999996
    vertex 2.5511112605663975 6.1117714323462184 3.9999999999999996
    vertex 2.7009618943233424 5.75 3.9999999999999996
  endloop
endfacet
facet normal 0.0 0.0 1.0
  outer loop
    vertex 2.7009618943233416 7.250000000000001 3.9999999999999996
    vertex 2.7009618943233424 5.75 3.9999999999999996
    vertex 2.9393398282201786 7.560660171779822 3.9999999999999996
  endloop
endfacet
facet normal 0.0 0.0 1.0
  outer loop
    vertex 2.9393398282201786 7.560660171779822 3.9999999999999996
    vertex 2.7009618943233424 5.75 3.9999999999999996
    vertex 2.9393398282201786 5.439339828220179 3.9999999999999996
  endloop
endfacet
facet normal 0.0 0.0 1.0
  outer loop
    vertex 2.9393398282201786 7.560660171779822 3.9999999999999996
    vertex 2.9393398282201786 5.439339828220179 3.9999999999999996
    vertex 3.250000000000001 5.200961894323342 3.9999999999999996
  endloop
endfacet
facet normal 0.0 0.0 1.0
  outer loop
    vertex 2.9393398282201786 7.560660171779822 3.9999999999999996
    vertex 3.250000000000001 5.200961894323342 3.9999999999999996
    vertex 3.2499999999999996 7.799038105676658 3.9999999999999996
  endloop
endfacet
facet normal 0.0 0.0 1.0
  outer loop
    vertex 3.2499999999999996 7.799038105676658 3.9999999999999996
    vertex 3.250000000000001 5.200961894323342 3.9999999999999996
    vertex 3.6117714323462184 7.948888739433603 3.9999999999999996
  endloop
endfacet
facet normal 0.0 0.0 1.0
  outer loop
    vertex 3.6117714323462184 7.948888739433603 3.9999999999999996
    vertex 3.250000000000001 5.200961894323342 3.9999999999999996
    vertex 3.611771432346219 5.051111260566398 3.9999999999999996
  endloop
endfacet
facet normal 0.0 0.0 1.0
  outer loop
    vertex 3.6117714323462184 7.948888739433603 3.9999999999999996
    vertex 3.611771432346219 5.051111260566398 3.9999999999999996
    vertex 3.9999999999999996 8.0 3.9999999999999996
  endloop
endfacet
facet normal 0.0 0.0 1.0
  outer loop
    vertex 3.9999999999999996 8.0 3.9999999999999996
    vertex 3.611771432346219 5.051111260566398 3.9999999999999996
    vertex 3.9999999999999996 5.000000000000001 3.9999999999999996
  endloop
endfacet
facet normal 0.0 0.0 1.0
  outer loop
    vertex 3.9999999999999996 8.0 3.9999999999999996
    vertex 3.9999999999999996 5.000000000000001 3.9999999999999996
    vertex 4.3882285676537816 5.051111260566398 3.9999999999999996
  endloop
endfacet
facet normal 0.0 0.0 1.0
  outer loop
    vertex 3.9999999999999996 8.0 3.9999999999999996
    vertex 4.3882285676537816 5.051111260566398 3.9999999999999996
    vertex 4.388228567653781 7.948888739433603 3.9999999999999996
  endloop
endfacet
facet normal 0.0 0.0 1.0
  outer loop
    vertex 4.388228567653781 7.948888739433603 3.9999999999999996
    vertex 4.3882285676537816 5.051111260566398 3.9999999999999996
    vertex 4.749999999999999 7.79903810567666 3.9999999999999996
  endloop
endfacet
facet normal 0.0 0.0 1.0
  outer loop
    vertex 4.749999999999999 7.79903810567666 3.9999999999999996
    vertex 4.3882285676537816 5.051111260566398 3.9999999999999996
    vertex 4.750000000000001 5.200961894323344 3.9999999999999996
  endloop
endfacet
facet normal 0.0 0.0 1.0
  outer loop
    vertex 4.749999999999999 7.79903810567666 3.9999999999999996
    vertex 4.750000000000001 5.200961894323344 3.9999999999999996
    vertex 5.060660171779821 7.560660171779822 3.9999999999999996
  endloop
endfacet
facet normal 0.0 0.0 1.0
  outer loop
    vertex 5.060660171779821 7.560660171779822 3.9999999999999996
    vertex 4.750000000000001 5.200961894323344 3.9999999999999996
    vertex 5.060660171779822 5.43933982822018 3.9999999999999996
  endloop
endfacet
facet normal 0.0 0.0 1.0
  outer loop
    vertex 5.060660171779821 7.560660171779822 3.9999999999999996
    vertex 5.060660171779822 5.43933982822018 3.9999999999999996
    vertex 5.299038105676657 7.250000000000001 3.9999999999999996
  endloop
endfacet
facet normal 0.0 0.0 1.0
  outer loop
    vertex 5.299038105676657 7.250000000000001 3.9999999999999996
    vertex 5.060660171779822 5.43933982822018 3.9999999999999996
    vertex 5.299038105676658 5.750000000000001 3.9999999999999996
  endloop
endfacet
facet normal 0.0 0.0 1.0
  outer loop
    vertex 5.299038105676657 7.250000000000001 3.9999999999999996
    vertex 5.299038105676658 5.750000000000001 3.9999999999999996
    vertex 5.4488887394336025 6.888228567653782 3.9999999999999996
  endloop
endfacet
facet normal 0.0 0.0 1.0
  outer loop
    vertex 5.4488887394336025 6.888228567653782 3.9999999999999996
    vertex 5.299038105676658 5.750000000000001 3.9999999999999996
    vertex 5.4488887394336025 6.11177143234622 3.9999999999999996
  endloop
endfacet
facet normal 0.0 0.0 1.0
  outer loop
    vertex 5.4488887394336025 6.888228567653782 3.9999999999999996
    vertex 5.4488887394336025 6.11177143234622 3.9999999999999996
    vertex 5.5 6.500000000000001 3.9999999999999996
  endloop
endfacet
facet normal -0.9914448613738105 -0.13052619222005235 -0.0
  outer loop
    vertex 2.4999999999999996 6.500000000000001 3.9999999999999996
    vertex 2.5511112605663975 6.1117714323462184 1.9999999999999998
    vertex 2.5511112605663975 6.1117714323462184 3.9999999999999996
  endloop
endfacet
facet normal -0.9914448613738105 -0.13052619222005235 -0.0
  outer loop
    vertex 2.5511112605663975 6.1117714323462184 1.9999999999999998
    vertex 2.4999999999999996 6.500000000000001 3.9999999999999996
    vertex 2.4999999999999996 6.500000000000001 1.9999999999999998
  endloop
endfacet
facet normal -0.9238795325112865 -0.38268343236509056 -0.0
  outer loop
    vertex 2.5511112605663975 6.1117714323462184 3.9999999999999996
    vertex 2.7009618943233424 5.75 1.9999999999999998
    vertex 2.7009618943233424 5.75 3.9999999999999996
  endloop
endfacet
facet normal -0.9238795325112865 -0.38268343236509056 -0.0
  outer loop
    vertex 2.7009618943233424 5.75 1.9999999999999998
    vertex 2.5511112605663975 6.1117714323462184 3.9999999999999996
    vertex 2.5511112605663975 6.1117714323462184 1.9999999999999998
  endloop
endfacet
facet normal -0.7933533402912355 -0.6087614290087202 -0.0
  outer loop
    vertex 2.7009618943233424 5.75 3.9999999999999996
    vertex 2.9393398282201786 5.439339828220179 1.9999999999999998
    vertex 2.9393398282201786 5.439339828220179 3.9999999999999996
  endloop
endfacet
facet normal -0.7933533402912355 -0.6087614290087202 -0.0
  outer loop
    vertex 2.9393398282201786 5.439339828220179 1.9999999999999998
    vertex 2.7009618943233424 5.75 3.9999999999999996
    vertex 2.7009618943233424 5.75 1.9999999999999998
  endloop
endfacet
facet normal -0.6087614290087197 -0.7933533402912362 -0.0
  outer loop
    vertex 3.250000000000001 5.200961894323342 3.9999999999999996
    vertex 2.9393398282201786 5.439339828220179 1.9999999999999998
    vertex 3.250000000000001 5.200961894323342 1.9999999999999998
  endloop
endfacet
facet normal -0.6087614290087197 -0.7933533402912362 -0.0
  outer loop
    vertex 2.9393398282201786 5.439339828220179 1.9999999999999998
    vertex 3.250000000000001 5.200961894323342 3.9999999999999996
    vertex 2.9393398282201786 5.439339828220179 3.9999999999999996
  endloop
endfacet
facet normal -0.3826834323650889 -0.9238795325112872 -0.0
  outer loop
    vertex 3.611771432346219 5.051111260566398 3.9999999999999996
    vertex 3.250000000000001 5.200961894323342 1.9999999999999998
    vertex 3.611771432346219 5.051111260566398 1.9999999999999998
  endloop
endfacet
facet normal -0.3826834323650889 -0.9238795325112872 -0.0
  outer loop
    vertex 3.250000000000001 5.200961894323342 1.9999999999999998
    vertex 3.611771432346219 5.051111260566398 3.9999999999999996
    vertex 3.250000000000001 5.200961894323342 3.9999999999999996
  endloop
endfacet
facet normal -0.1305261922200519 -0.9914448613738104 -0.0
  outer loop
    vertex 3.9999999999999996 5.000000000000001 3.9999999999999996
    vertex 3.611771432346219 5.051111260566398 1.9999999999999998
    vertex 3.9999999999999996 5.000000000000001 1.9999999999999998
  endloop
endfacet
facet normal -0.1305261922200519 -0.9914448613738104 -0.0
  outer loop
    vertex 3.611771432346219 5.051111260566398 1.9999999999999998
    vertex 3.9999999999999996 5.000000000000001 3.9999999999999996
    vertex 3.611771432346219 5.051111260566398 3.9999999999999996
  endloop
endfacet
facet normal 0.13052619222005146 -0.9914448613738105 0.0
  outer loop
    vertex 4.3882285676537816 5.051111260566398 3.9999999999999996
    vertex 3.9999999999999996 5.000000000000001 1.9999999999999998
    vertex 4.3882285676537816 5.051111260566398 1.9999999999999998
  endloop
endfacet
facet normal 0.13052619222005146 -0.9914448613738105 0.0
  outer loop
    vertex 3.9999999999999996 5.000000000000001 1.9999999999999998
    vertex 4.3882285676537816 5.051111260566398 3.9999999999999996
    vertex 3.9999999999999996 5.000000000000001 3.9999999999999996
  endloop
endfacet
facet normal 0.38268343236509134 -0.9238795325112862 0.0
  outer loop
    vertex 4.750000000000001 5.200961894323344 3.9999999999999996
    vertex 4.3882285676537816 5.051111260566398 1.9999999999999998
    vertex 4.750000000000001 5.200961894323344 1.9999999999999998
  endloop
endfacet
facet normal 0.38268343236509134 -0.9238795325112862 0.0
  outer loop
    vertex 4.3882285676537816 5.051111260566398 1.9999999999999998
    vertex 4.750000000000001 5.200961894323344 3.9999999999999996
    vertex 4.3882285676537816 5.051111260566398 3.9999999999999996
  endloop
endfacet
facet normal 0.6087614290087202 -0.7933533402912355 0.0
  outer loop
    vertex 5.060660171779822 5.43933982822018 3.9999999999999996
    vertex 4.750000000000001 5.200961894323344 1.9999999999999998
    vertex 5.060660171779822 5.43933982822018 1.9999999999999998
  endloop
endfacet
facet normal 0.6087614290087202 -0.7933533402912355 0.0
  outer loop
    vertex 4.750000000000001 5.200961894323344 1.9999999999999998
    vertex 5.060660171779822 5.43933982822018 3.9999999999999996
    vertex 4.750000000000001 5.200961894323344 3.9999999999999996
  endloop
endfacet
facet normal 0.7933533402912355 -0.6087614290087202 0.0
  outer loop
    vertex 5.299038105676658 5.750000000000001 1.9999999999999998
    vertex 5.060660171779822 5.43933982822018 3.9999999999999996
    vertex 5.060660171779822 5.43933982822018 1.9999999999999998
  endloop
endfacet
facet normal 0.7933533402912355 -0.6087614290087202 0.0
  outer loop
    vertex 5.060660171779822 5.43933982822018 3.9999999999999996
    vertex 5.299038105676658 5.750000000000001 1.9999999999999998
    vertex 5.299038105676658 5.750000000000001 3.9999999999999996
  endloop
endfacet
facet normal 0.9238795325112872 -0.38268343236508917 0.0
  outer loop
    vertex 5.4488887394336025 6.11177143234622 1.9999999999999998
    vertex 5.299038105676658 5.750000000000001 3.9999999999999996
    vertex 5.299038105676658 5.750000000000001 1.9999999999999998
  endloop
endfacet
facet normal 0.9238795325112872 -0.38268343236508917 0.0
  outer loop
    vertex 5.299038105676658 5.750000000000001 3.9999999999999996
    vertex 5.4488887394336025 6.11177143234622 1.9999999999999998
    vertex 5.4488887394336025 6.11177143234622 3.9999999999999996
  endloop
endfacet
facet normal 0.9914448613738104 -0.1305261922200519 0.0
  outer loop
    vertex 5.5 6.500000000000001 1.9999999999999998
    vertex 5.4488887394336025 6.11177143234622 3.9999999999999996
    vertex 5.4488887394336025 6.11177143234622 1.9999999999999998
  endloop
endfacet
facet normal 0.9914448613738104 -0.1305261922200519 0.0
  outer loop
    vertex 5.4488887394336025 6.11177143234622 3.9999999999999996
    vertex 5.5 6.500000000000001 1.9999999999999998
    vertex 5.5 6.500000000000001 3.9999999999999996
  endloop
endfacet
facet normal 0.9914448613738105 0.13052619222005168 0.0
  outer loop
    vertex 5.4488887394336025 6.888228567653782 1.9999999999999998
    vertex 5.5 6.500000000000001 3.9999999999999996
    vertex 5.5 6.500000000000001 1.9999999999999998
  endloop
endfacet
facet normal 0.9914448613738105 0.13052619222005168 0.0
  outer loop
    vertex 5.5 6.500000000000001 3.9999999999999996
    vertex 5.4488887394336025 6.888228567653782 1.9999999999999998
    vertex 5.4488887394336025 6.888228567653782 3.9999999999999996
  endloop
endfacet
facet normal 0.9238795325112862 0.38268343236509134 0.0
  outer loop
    vertex 5.299038105676657 7.250000000000001 1.9999999999999998
    vertex 5.4488887394336025 6.888228567653782 3.9999999999999996
    vertex 5.4488887394336025 6.888228567653782 1.9999999999999998
  endloop
endfacet
facet normal 0.9238795325112862 0.38268343236509134 0.0
  outer loop
    vertex 5.4488887394336025 6.888228567653782 3.9999999999999996
    vertex 5.299038105676657 7.250000000000001 1.9999999999999998
    vertex 5.299038105676657 7.250000000000001 3.9999999999999996
  endloop
endfacet
facet normal 0.7933533402912355 0.6087614290087202 0.0
  outer loop
    vertex 5.060660171779821 7.560660171779822 1.9999999999999998
    vertex 5.299038105676657 7.250000000000001 3.9999999999999996
    vertex 5.299038105676657 7.250000000000001 1.9999999999999998
  endloop
endfacet
facet normal 0.7933533402912355 0.6087614290087202 0.0
  outer loop
    vertex 5.299038105676657 7.250000000000001 3.9999999999999996
    vertex 5.060660171779821 7.560660171779822 1.9999999999999998
    vertex 5.060660171779821 7.560660171779822 3.9999999999999996
  endloop
endfacet
facet normal 0.6087614290087217 0.7933533402912346 0.0
  outer loop
    vertex 4.749999999999999 7.79903810567666 3.9999999999999996
    vertex 5.060660171779821 7.560660171779822 1.9999999999999998
    vertex 4.749999999999999 7.79903810567666 1.9999999999999998
  endloop
endfacet
facet normal 0.6087614290087217 0.7933533402912346 0.0
  outer loop
    vertex 5.060660171779821 7.560660171779822 1.9999999999999998
    vertex 4.749999999999999 7.79903810567666 3.9999999999999996
    vertex 5.060660171779821 7.560660171779822 3.9999999999999996
  endloop
endfacet
facet normal 0.3826834323650882 0.9238795325112874 0.0
  outer loop
    vertex 4.388228567653781 7.948888739433603 3.9999999999999996
    vertex 4.749999999999999 7.79903810567666 1.9999999999999998
    vertex 4.388228567653781 7.948888739433603 1.9999999999999998
  endloop
endfacet
facet normal 0.3826834323650882 0.9238795325112874 0.0
  outer loop
    vertex 4.749999999999999 7.79903810567666 1.9999999999999998
    vertex 4.388228567653781 7.948888739433603 3.9999999999999996
    vertex 4.749999999999999 7.79903810567666 3.9999999999999996
  endloop
endfacet
facet normal 0.1305261922200519 0.9914448613738104 0.0
  outer loop
    vertex 3.9999999999999996 8.0 3.9999999999999996
    vertex 4.388228567653781 7.948888739433603 1.9999999999999998
    vertex 3.9999999999999996 8.0 1.9999999999999998
  endloop
endfacet
facet normal 0.1305261922200519 0.9914448613738104 0.0
  outer loop
    vertex 4.388228567653781 7.948888739433603 1.9999999999999998
    vertex 3.9999999999999996 8.0 3.9999999999999996
    vertex 4.388228567653781 7.948888739433603 3.9999999999999996
  endloop
endfacet
facet normal -0.13052619222005168 0.9914448613738105 0.0
  outer loop
    vertex 3.6117714323462184 7.948888739433603 3.9999999999999996
    vertex 3.9999999999999996 8.0 1.9999999999999998
    vertex 3.6117714323462184 7.948888739433603 1.9999999999999998
  endloop
endfacet
facet normal -0.13052619222005168 0.9914448613738105 0.0
  outer loop
    vertex 3.9999999999999996 8.0 1.9999999999999998
    vertex 3.6117714323462184 7.948888739433603 3.9999999999999996
    vertex 3.9999999999999996 8.0 3.9999999999999996
  endloop
endfacet
facet normal -0.38268343236509134 0.9238795325112862 0.0
  outer loop
    vertex 3.2499999999999996 7.799038105676658 3.9999999999999996
    vertex 3.6117714323462184 7.948888739433603 1.9999999999999998
    vertex 3.2499999999999996 7.799038105676658 1.9999999999999998
  endloop
endfacet
facet normal -0.38268343236509134 0.9238795325112862 0.0
  outer loop
    vertex 3.6117714323462184 7.948888739433603 1.9999999999999998
    vertex 3.2499999999999996 7.799038105676658 3.9999999999999996
    vertex 3.6117714323462184 7.948888739433603 3.9999999999999996
  endloop
endfacet
facet normal -0.6087614290087202 0.7933533402912355 0.0
  outer loop
    vertex 2.9393398282201786 7.560660171779822 3.9999999999999996
    vertex 3.2499999999999996 7.799038105676658 1.9999999999999998
    vertex 2.9393398282201786 7.560660171779822 1.9999999999999998
  endloop
endfacet
facet normal -0.6087614290087202 0.7933533402912355 0.0
  outer loop
    vertex 3.2499999999999996 7.799038105676658 1.9999999999999998
    vertex 2.9393398282201786 7.560660171779822 3.9999999999999996
    vertex 3.2499999999999996 7.799038105676658 3.9999999999999996
  endloop
endfacet
facet normal -0.7933533402912346 0.6087614290087213 0.0
  outer loop
    vertex 2.9393398282201786 7.560660171779822 3.9999999999999996
    vertex 2.7009618943233416 7.250000000000001 1.9999999999999998
    vertex 2.7009618943233416 7.250000000000001 3.9999999999999996
  endloop
endfacet
facet normal -0.7933533402912346 0.6087614290087213 0.0
  outer loop
    vertex 2.7009618943233416 7.250000000000001 1.9999999999999998
    vertex 2.9393398282201786 7.560660171779822 3.9999999999999996
    vertex 2.9393398282201786 7.560660171779822 1.9999999999999998
  endloop
endfacet
facet normal -0.9238795325112867 0.3826834323650898 0.0
  outer loop
    vertex 2.7009618943233416 7.250000000000001 3.9999999999999996
    vertex 2.5511112605663975 6.888228567653782 1.9999999999999998
    vertex 2.5511112605663975 6.888228567653782 3.9999999999999996
  endloop
endfacet
facet normal -0.9238795325112867 0.3826834323650898 0.0
  outer loop
    vertex 2.5511112605663975 6.888228567653782 1.9999999999999998
    vertex 2.7009618943233416 7.250000000000001 3.9999999999999996
    vertex 2.7009618943233416 7.250000000000001 1.9999999999999998
  endloop
endfacet
facet normal -0.9914448613738105 0.13052619222005168 0.0
  outer loop
    vertex 2.5511112605663975 6.888228567653782 3.9999999999999996
    vertex 2.4999999999999996 6.500000000000001 1.9999999999999998
    vertex 2.4999999999999996 6.500000000000001 3.9999999999999996
  endloop
endfacet
facet normal -0.9914448613738105 0.13052619222005168 0.0
  outer loop
    vertex 2.4999999999999996 6.500000000000001 1.9999999999999998
    vertex 2.5511112605663975 6.888228567653782 3.9999999999999996
    vertex 2.5511112605663975 6.888228567653782 1.9999999999999998
  endloop
endfacet
endsolid IR_GP2D12_Mount
